<svg fill="none" id="logo" viewBox="0 0 401 380" width="401" xmlns="http://www.w3.org/2000/svg">
<path d="M366.146 268.036H313.721V275.043C276.515 274.779 238.818 274.654 201.623 274.654C165.643 274.654 129.169 274.779 93.1539 275.043V268.036H33.9789V357.067L37.436 356.678C52.2297 355.043 67.2921 353.61 82.1482 352.422C87.8788 351.929 93.6367 351.466 99.4218 351.033L99.6282 347.895C93.7106 348.333 87.7945 348.808 81.8795 349.32C66.9301 350.519 51.9948 351.946 37.0739 353.602V271.15H90.02C90.02 273.486 90.02 275.822 90.02 278.158C127.215 277.898 164.411 277.769 201.608 277.769C240.02 277.769 278.432 277.91 316.843 278.193C316.843 275.857 316.843 273.512 316.843 271.158H366.149V353.594C352.76 352.12 339.36 350.822 325.949 349.701C323.31 349.465 320.668 349.235 318.023 349.012L318.876 352.208C321.144 352.403 323.409 352.602 325.669 352.804H325.692C339.018 353.914 352.516 355.222 365.791 356.697L369.248 357.086V268.036H366.146Z" fill="#A22223"></path>
<g opacity="0.3">
<path d="M375.875 275.444V363.985C361.081 362.35 347.774 360.937 332.949 359.73L329.792 355.837C344.473 357.005 357.628 358.371 372.281 359.952V359.453V275.444H375.875ZM41.7651 363.378C58.05 361.579 68.2927 360.653 84.6164 359.376L87.7738 355.482C70.3989 356.81 59.1011 357.818 41.7651 359.734V363.378Z" fill="black" opacity="0.3"></path>
</g>
<path d="M105.775 348.627C105.775 348.627 98.8341 347.509 93.738 345.162L94.2285 349.697L91.9277 355.183C98.0087 351.511 105.596 348.677 105.596 348.677L105.207 348.712L105.775 348.627Z" fill="#A22223"></path>
<path d="M325.735 355.961L323.431 350.476L323.921 345.94C318.825 348.276 311.888 349.405 311.888 349.405L312.46 349.491L312.071 349.456C312.071 349.456 319.65 352.29 325.735 355.961Z" fill="#A22223"></path>
<path d="M256.75 122.313L263.134 145.532C263.921 144.27 264.806 143.072 265.782 141.95L261.16 125.144L272.595 123.279L273.735 123.162C273.529 121.994 273.346 120.826 273.178 119.697L272.131 119.802L256.75 122.313Z" fill="white"></path>
<path d="M132.474 151.293C127.113 152.851 121.574 154.462 116.824 155.848L127.398 194.297C126.837 189.823 126.619 185.467 127.047 182.438C127.125 181.897 127.211 181.329 127.3 180.729L121.118 158.243C124.976 157.114 128.386 156.121 131.408 155.249C131.443 155.05 131.474 154.86 131.501 154.712C131.733 153.548 132.059 152.405 132.474 151.293Z" fill="white"></path>
<path d="M341.845 92.06C341.997 91.0906 342.444 88.1669 338.583 70.9633C336.562 61.9742 334.117 52.6269 332.774 48.7338C329.617 39.6006 324.209 38.0706 317.98 37.1168C313.858 36.4861 304.814 34.886 300.796 34.1697C299.391 30.8995 295.844 25.0754 287.996 23.3235C280.63 21.6845 272.221 20.8826 262.301 20.8826C256.321 20.8826 250.817 21.1823 246.686 21.4393C236.4 22.0855 209.663 24.2734 209.394 24.2968L206.058 24.5693L205.1 5.52041L204.824 0L199.946 2.60838L115.384 47.8656L113.612 48.8155L113.538 50.8283L112.479 79.789L81.3774 88.9183L79.5399 89.4594L79.0026 91.297L75.8881 102.011L75.3236 103.938L76.7057 105.402C76.7563 105.456 82.6699 111.934 83.6782 122.531C82.9247 122.809 82.1404 122.994 81.3424 123.084L68.1837 123.898L66.498 123.999L65.5286 125.385L58.7235 135.118L57.4504 136.94L58.5522 138.867L67.3039 154.194L68.1448 155.662L69.8188 155.918L73.3654 156.46L90.9505 160.174L119.865 239.725L121.032 242.898L124.244 241.862L134.133 238.674L135.301 238.285L135.982 237.245L139.957 231.156L140.821 229.833L140.401 228.311L137.021 216.024C135.504 215.487 134.071 214.738 132.762 213.801L137.014 229.253L133.035 235.342L123.146 238.53L93.5589 157.164L73.9533 153.03L70.3171 152.454L61.5654 137.127L68.3667 127.394L81.6032 126.576C81.6032 126.576 87.4428 126.043 87.2443 123.24C86.4073 110.568 79.244 102.996 79.244 102.996L82.3585 92.2858L115.882 82.4441L117.05 50.9606L201.612 5.70337L203.044 34.2709L210.052 32.7137L209.663 27.7733C209.663 27.7733 236.525 25.5738 246.892 24.9236C251.233 24.6511 256.547 24.3708 262.286 24.3708C270.255 24.3708 279.049 24.908 287.229 26.73C296.101 28.7077 298.18 37.2413 298.18 37.2413C298.18 37.2413 311.973 39.7252 317.443 40.5622C322.913 41.3992 326.864 42.3764 329.449 49.8589C332.034 57.3414 339.096 86.7732 338.372 91.515C337.648 96.2568 330.617 105.624 325.63 108.964C323.812 110.182 319.892 111.572 315.644 112.857L333.354 177.206L329.379 183.299L319.491 186.487L298.468 128.616C299.346 133.621 299.937 138.672 300.239 143.745L316.201 187.682L317.369 190.859L320.585 189.82L330.473 186.635L331.641 186.246L332.319 185.206L336.297 179.114L337.162 177.794L336.741 176.272L319.939 115.177C324.719 113.589 326.588 112.553 327.6 111.876C333.101 108.201 340.918 98.1216 341.845 92.06Z" fill="white"></path>
<path d="M234.925 126.257L231.289 127.001L165.067 139.349C162.736 141.024 160.31 142.563 157.803 143.959C157.914 145.279 157.863 146.607 157.651 147.914C160.765 146.563 164.363 144.15 166.477 142.651L231.931 130.446H231.962H231.99L232.663 130.306L245.9 166.741C246.965 166.26 248.055 165.837 249.166 165.472L234.925 126.257Z" fill="white"></path>
<g opacity="0.3">
<path d="M93.5667 157.149L92.1418 156.849L94.5906 159.96L93.5667 157.149Z" fill="black" opacity="0.3"></path>
<path d="M239.371 155.953C239.527 156.682 239.647 157.355 239.737 157.943C240.15 160.542 240.29 163.178 240.153 165.807C240.776 165.371 241.45 164.958 242.151 164.565L244.782 153.376L242.333 146.633L239.371 155.953Z" fill="black" opacity="0.3"></path>
<path d="M213.583 136.753C214.771 136.857 215.95 137.048 217.11 137.325L217.499 129.57L214.428 130.146L213.583 136.753Z" fill="black" opacity="0.3"></path>
<path d="M302.412 163.771C301.15 167.878 299.496 171.214 297.861 174.496C297.522 175.182 297.179 175.867 296.837 176.567C294.376 181.628 291.285 185.051 289.051 187.558C288.132 188.574 286.995 189.835 286.769 190.341L286.688 190.633C286.298 191.941 285.909 193.308 285.52 194.705L309.489 158.889L308.469 156.09L302.412 163.771Z" fill="black" opacity="0.3"></path>
<path d="M327.845 131.446L322.601 138.111L322.831 138.941L327.845 131.446Z" fill="black" opacity="0.3"></path>
<path d="M159.979 154.56C158.98 155.981 157.761 157.234 156.366 158.27L162.595 184.743H163.019C165.35 184.801 167.675 185.002 169.98 185.346L160.131 154.338C160.069 154.412 160.026 154.49 159.979 154.56Z" fill="black" opacity="0.3"></path>
<path d="M176.82 245.246C176.509 240.445 175.929 238.335 175.723 237.919C175.364 237.21 174.975 236.459 174.555 235.696L176.82 245.246Z" fill="black" opacity="0.3"></path>
<path d="M257.458 276.48L381.523 187.577L251.015 266.747L357.211 157.121L331.801 179.616L329.379 183.326L326.596 184.221L248.232 253.596C247.609 258.412 246.285 271.341 246.406 273.572C246.472 273.899 246.589 274.506 246.795 275.845L246.912 276.515C258.233 276.546 269.557 276.59 280.883 276.647L289.448 274.28L400.012 221.926L257.458 276.48Z" fill="black" opacity="0.3"></path>
<path d="M126.954 160.466C127.429 157.596 127.814 155.299 128.017 154.163C128.017 154.061 128.056 153.952 128.079 153.84L127.499 152.746L124.034 153.754L126.954 160.466Z" fill="black" opacity="0.3"></path>
<path d="M92.1418 156.849L88.6731 156.117L98.5615 170.884L94.5906 159.959L92.1418 156.849Z" fill="black" opacity="0.3"></path>
<path d="M157.067 258.272L131.664 235.781L123.146 238.507L117.634 223.324L42.789 157.102L148.985 266.747L18.4766 187.589L142.538 276.48L0 221.926L104.724 271.524L123.434 276.643C140.35 276.562 157.304 276.503 174.224 276.472L174.278 276.005C175.255 267.775 176.412 258.291 176.747 255.71C177.015 253.651 177.058 249.633 176.852 245.923L167.119 227.528L166.005 227.458C164.612 227.376 163.035 227.283 161.209 227.104C159.29 226.891 157.387 226.548 155.514 226.08L166.531 251.385L143.562 222.187L142.242 221.797C139.501 221.069 136.817 220.143 134.211 219.026L136.585 227.657L157.067 258.272Z" fill="black" opacity="0.3"></path>
<path d="M185.389 185.771L186.168 185.588C187.482 185.237 188.816 184.964 190.162 184.77C190.606 184.723 191.49 184.607 192.576 184.455L186.261 135.402L182.828 136.036L185.389 185.771Z" fill="black" opacity="0.3"></path>
</g>
<path d="M338.302 91.6513C339.026 86.9134 331.964 57.4816 329.379 49.9951C326.794 42.5087 322.839 41.5354 317.373 40.6984C311.907 39.8614 298.11 37.3776 298.11 37.3776C298.11 37.3776 296.031 28.8401 287.159 26.8663C273.089 23.7323 257.182 24.4097 246.822 25.0599C236.463 25.71 209.593 27.9096 209.593 27.9096L209.982 32.8538L202.974 34.3916L201.514 5.82019L116.956 51.0696L115.808 82.557L82.2845 92.3949L79.17 103.109C79.17 103.109 86.3333 110.685 87.1703 123.353C87.3533 126.16 81.5292 126.693 81.5292 126.693L68.2927 127.507L61.4915 137.239L70.2431 152.567L73.8871 153.123L93.4927 157.258L123.08 238.623L132.969 235.435L136.932 229.373L116.742 155.969C130.757 151.866 151.975 145.715 153.987 145.524C157.016 145.244 164.985 139.474 164.985 139.474L231.207 127.121L234.843 126.378L256.368 185.599L266.985 182.177L271.267 175.59L256.652 122.453L272.034 119.942L294.326 117.653L319.393 186.616L329.282 183.427L333.257 177.338L315.582 112.989C319.829 111.712 323.758 110.319 325.568 109.096C330.547 105.76 337.578 96.3892 338.302 91.6513ZM87.1976 104.584C88.5679 104.265 92.4454 111.728 92.8425 114.029C93.2396 116.33 92.0367 121.737 90.5923 121.426C89.148 121.114 89.985 118.066 89.366 114.807C88.747 111.549 85.2627 105.036 87.1976 104.584ZM78.9053 137.886C72.9722 139.326 73.4822 136.796 73.4822 136.796C77.0989 137.524 82.4363 131.454 82.4363 131.454L193.23 83.7911L194.308 87.7699C194.308 87.7699 84.8383 136.457 78.9053 137.886ZM217.932 59.7629C216.596 59.4748 217.371 56.6484 216.799 53.6547C216.409 51.5913 214.782 48.1343 214.366 46.0203C201.857 52.2376 108.08 98.8223 102.63 100.403C103.825 98.7561 105.211 96.7045 105.211 96.7045L105.9 93.8236L214.517 41.4148L215.506 44.5292C217.063 45.849 219.719 51.1475 220.03 52.9461C220.373 55.0678 219.263 60.0627 217.932 59.7707V59.7629ZM278.049 59.7629C274.245 59.868 273.015 58.7663 273.015 58.7663L266.759 29.9301C270.748 29.3289 274.808 29.3684 278.785 30.0469L285.835 59.5293C285.835 59.5293 281.848 59.6695 278.049 59.7785V59.7629ZM291.714 60.1522C290.83 60.016 284.581 31.246 284.581 31.246C284.581 31.246 291.2 32.1959 292.079 35.8126C292.959 39.4293 298.398 61.1761 298.398 61.1761L291.714 60.1522ZM317.797 78.4498C315.738 78.5082 313.059 77.7256 313.059 77.7256L305.071 44.6538L316.917 46.468L324.186 79.4892C324.186 79.4892 319.865 78.4381 317.809 78.4965L317.797 78.4498Z" fill="white"></path>
<path d="M208.981 154.536C210.539 155.214 214.549 154.486 215.14 154.209C215.732 153.933 217.589 153.084 217.32 152.454C217.052 151.823 214.513 150.931 212.501 150.558C210.488 150.184 207.346 150.453 207.346 150.453C206.357 152.041 207.412 153.847 208.981 154.536Z" fill="white"></path>
<path d="M300.275 144.667C299.667 129.095 294.408 108.462 291.573 100.15C288.739 91.8381 283.885 86.7927 279.026 87.6024C274.167 88.4122 269.515 94.4815 266.681 97.3157C263.847 100.15 263.847 103.385 265.466 103.992C267.086 104.6 273.159 100.15 273.159 100.15C273.159 100.15 272.77 109.256 272.77 114.718C272.77 120.18 275.6 131.921 275.6 131.921C275.6 131.921 265.867 140.623 263.057 145.578C260.246 150.534 260.425 158.227 259.21 160.656C257.995 163.086 256.376 164.098 252.736 164.503C249.096 164.908 242.411 167.738 240.188 170.37C237.966 173.001 233.103 179.071 232.698 178.261C232.293 177.451 233.71 172.811 235.33 168.528C236.949 164.246 235.532 152.138 231.686 148.494C227.84 144.85 216.199 139.688 211.053 140.401C202.25 141.615 200.592 146.061 199.883 148.187C199.155 150.379 197.497 156.592 197.497 157.807C197.497 159.021 198.307 168.127 198.104 171.974C197.902 175.82 201.542 178.245 201.542 178.245V186.744C201.542 186.744 192.233 188.161 190.209 188.364C188.185 188.566 181.103 190.793 178.471 190.388C175.84 189.983 166.737 188.364 162.689 188.364C158.64 188.364 151.761 191.198 151.761 191.198C151.761 191.198 145.065 178.059 145.263 177.046C145.462 176.034 145.263 155.595 145.263 155.595C145.263 155.595 148.498 155.393 150.324 155.985C152.15 156.576 155.183 153.96 156.393 152.142C157.604 150.324 158.589 143.188 157.172 142.184C155.755 141.179 150.122 141.405 147.895 141.016C145.668 140.626 137.574 142.433 136.36 143.441C135.145 144.449 132.112 151.134 131.505 154.571C130.898 158.009 128.266 174.002 127.051 182.298C125.837 190.594 129.683 208.806 131.505 212.248C133.327 215.689 143.243 217.698 145.259 218.519C147.276 219.341 155.183 222.366 161.252 222.973C167.321 223.581 170.965 223.176 172.382 224.795C173.8 226.415 177.241 232.686 178.857 235.925C180.472 239.165 180.881 251.303 180.274 255.959C179.947 258.463 178.802 267.884 177.809 276.203C185.769 276.203 193.713 276.203 201.639 276.203C215.247 276.203 228.905 276.222 242.614 276.258C242.431 275.18 242.283 274.35 242.197 273.98C241.808 272.159 243.817 253.736 244.222 251.315C244.627 248.893 248.473 246.46 250.7 244.233C252.927 242.007 269.317 226.224 272.961 218.333C276.604 210.441 281.864 191.821 282.693 188.986C283.523 186.152 289.168 182.512 293.014 174.621C296.86 166.73 300.882 160.251 300.275 144.667ZM245.117 173.901C253.744 170.864 248.064 181.792 246.168 184.829C244.272 187.865 241.419 194.787 236.369 201.873C231.32 208.958 224.301 211.995 212.621 210.932C202.021 209.97 206.622 197.579 208.098 194.542C209.573 191.505 225.414 188.371 228.342 186.954C231.269 185.537 236.49 176.937 245.117 173.901ZM203.71 155.841C204.921 153.26 204.014 152.337 204.014 150.982C204.014 149.627 203.963 143.41 209.382 142.947C214.525 142.511 221.101 145.107 223.203 146.088C230.635 149.549 232.18 152.543 232.971 156.331C236.634 173.916 228.361 174.208 231.075 163.339C232.34 158.278 227.03 160.224 226.929 161.75C226.317 171.164 230.172 169.607 230.082 178.88C230.082 180.437 227.096 182.446 227.096 182.446C227.096 182.446 221.256 184.435 219.31 185.498C217.363 186.561 212.532 188.017 210.254 188.169C207.977 188.321 205.684 186.651 205.684 186.651C205.244 185.132 205.684 182.855 205.684 182.855C207.409 182.945 209.137 182.945 210.862 182.855C213.587 182.703 217.235 180.729 218.601 178.3C219.968 175.871 221.996 168.738 221.996 168.738C221.996 168.738 217.461 173.149 214.315 173.371C213.319 173.418 212.32 173.37 211.333 173.227C211.278 172.449 211.025 168.664 211.103 167.353C211.298 163.966 210.465 162.626 209.421 162.241C209.18 161.495 208.722 160.837 208.105 160.353C206.786 159.29 206.116 159.103 204.94 158.57C203.815 158.067 202.496 158.418 203.71 155.841ZM201.437 167.676C201.596 167.006 203.103 167.979 205.073 167.676C205.982 167.539 206.87 167.287 207.716 166.928C207.779 167.37 207.779 167.818 207.716 168.26C207.327 171.374 206.743 171.861 204.306 172.382C202.496 172.686 199.872 174.158 201.437 167.676ZM166.087 214.58L155.159 212.758C154.248 210.632 155.767 207.903 162.14 207.903C163.969 207.899 173.352 214.58 166.087 214.58ZM173.068 202.122C171.857 204.551 164.238 202.562 160.61 202.122C155.654 201.522 152.107 203.336 149.254 205.766C146.4 208.195 144.679 218.819 136.017 210.998C132.576 207.884 130.855 197.874 129.944 192.183C129.033 186.491 130.761 174.158 132.751 162.953C132.751 162.953 134.102 163.234 134.88 166.103C135.694 169.112 135.713 169.642 135.713 176.019C135.713 182.395 142.39 198.482 144.819 200.603C147.249 202.725 149.709 200.779 151.979 199.786C154.435 198.708 160.579 197.135 164.382 197.773C170.42 198.793 174.263 199.7 173.048 202.122H173.068ZM179.939 203.776C181.913 200.234 184.509 197.637 189.672 196.021C194.834 194.406 202.211 194.822 202.211 194.822C199.895 199.253 200.962 203.827 199.875 209.554C198.708 215.666 187.367 216.429 184.105 216.082C176.497 215.28 178.113 207.035 179.919 203.784L179.939 203.776ZM195.831 259.241C193.907 259.14 187.468 261.188 188.913 258.638C189.995 256.722 194.098 255.784 195.204 255.718C197.52 255.59 197.793 259.35 195.811 259.249L195.831 259.241ZM196.27 248.652C195.285 249.586 193.998 250.138 192.642 250.209C191.619 250.239 190.607 250.425 189.641 250.762C188.406 251.272 188.153 252.21 187.188 249.641C186.479 247.749 187.986 247.177 187.986 247.177C188.889 246.667 191.334 245.347 192.915 245.129C194.916 244.848 196.64 244.42 197.1 244.961C197.559 245.503 196.679 248.197 196.251 248.66L196.27 248.652ZM197.306 239.453C196.889 240.107 195.036 241.399 193.557 241.52C192.078 241.641 188.683 242.688 187.476 243.681C186.269 244.673 186.717 242.871 185.845 239.959C185.132 237.58 186.651 236.478 186.651 236.478C188.309 235.166 190.742 233.683 192.63 233.06C195.021 232.282 197.166 231.74 197.73 231.892C198.544 232.157 197.707 238.806 197.287 239.46L197.306 239.453ZM260.008 202.207C258.19 206.272 255.368 210.94 253.226 213.571C250.54 216.873 245.012 225.126 240.356 228.147C235.7 231.168 236.108 231.803 235.906 236.054C235.704 240.305 233.831 245.849 232.402 251.109C230.974 256.368 229.467 260.211 227.041 261.067C224.616 261.924 226.625 260.717 227.637 254.838C228.649 248.96 224.756 257.536 221.716 262.235L221.56 262.476C220.489 264.127 219.177 266.37 217.472 267.273C215.767 268.176 213.883 268.398 207.938 269.102C201.067 269.92 200.498 269.76 199.272 268.507C197.38 266.56 201.456 263.185 201.456 263.185C203.319 263.484 205.203 263.622 207.089 263.598C208.873 263.587 210.654 263.735 212.411 264.038C213.867 264.283 215.031 264.45 215.526 264.092C215.557 264.045 215.586 263.995 215.611 263.944C216.261 262.601 213.902 260.939 211.06 260.102C208.468 259.323 202.667 259.171 202.496 258.848C202.106 258.132 201.853 256.652 202.324 255.71C202.795 254.768 207.214 255.399 210.352 256.489C211.812 257.007 216.927 258.393 217.683 261.904C217.712 262.042 217.729 262.183 217.733 262.325C218.313 261.636 219.403 260.767 219.419 259.88C219.394 259.823 219.379 259.762 219.376 259.701C219.111 257.462 218.632 255.539 217.628 254.507C216.538 253.386 213.603 252.37 211.613 252.109C210.313 251.942 202.702 251.007 202.075 250.163C201.448 249.318 200.681 246.231 201.296 245.039C201.912 243.848 208.639 244.736 212.902 246.048C217.165 247.36 219.384 252.047 220.014 250.517L220.287 246.433C220.322 244.455 220.205 243.708 219.057 242.766C218.15 242.022 214.541 241.835 213.248 241.598C210.912 241.177 202.69 240.43 202.06 239.554C201.429 238.678 201.507 232.936 202.141 231.678C202.776 230.421 209.538 231.258 213.782 232.741C215.565 233.364 219.909 236.84 220.789 239.001L220.957 236.486C221.159 234.263 219.259 230.72 216.834 228.898C214.408 227.077 208.658 225.827 201.604 225.052C195.858 226.578 190.991 227.777 187.441 229.821C182.691 232.546 182.068 231.892 181.422 230.21C180.819 228.653 179.795 226.531 179.176 223.141C178.787 221.031 182.162 222.397 189.278 222C196.243 221.611 202.904 215.771 202.904 215.771C208.292 218.305 219.01 220.575 223.067 220.789C227.999 221.054 233.146 219.543 234.516 218.656C238.195 216.269 239.924 213.096 242.256 210.437C245.191 207.093 247.087 203.243 247.967 201.343C249.022 199.066 252.171 194.546 256.22 194.951C260.269 195.356 260.682 196.084 261.347 197.82C261.604 198.509 261.347 199.171 259.989 202.215L260.008 202.207ZM289.934 131.396C287.509 135.643 283.561 143.854 282.954 144.146C282.347 144.438 285.679 146.571 287.813 144.146C289.946 141.72 288.116 150.822 285.383 155.681C282.65 160.54 276.098 169.774 272.026 173.363C253.612 189.602 257.104 174.703 263.816 167.018C267.121 163.234 272.634 153.859 273.548 151.733C274.463 149.608 273.852 147.178 270.208 151.733C266.564 156.288 265.217 156.876 264.61 157.787C264.003 158.698 265.147 150.071 269.601 145.057C272.883 141.358 278.407 135.795 279.618 134.888C280.828 133.981 278.722 117.431 277.811 113.787C277.422 112.292 277.188 109.77 276.963 107.169C279.073 107.558 280.953 108.185 281.977 109.116C285.286 112.071 289.938 122.286 289.938 122.286C290.522 124.423 292.344 127.152 289.915 131.404L289.934 131.396Z" fill="white"></path>
<mask height="380" id="mask0_2_262" maskUnits="userSpaceOnUse" style="mask-type:luminance" width="400" x="0" y="0">
<path d="M400 0H0V379.437H400V0Z" fill="white"></path>
</mask>
<g mask="url(#mask0_2_262)">
<path d="M53.9304 310.444L57.839 309.519L70.2106 332.515L73.5891 332.677L73.9398 335.054L62.5234 337.119L62.1727 334.742L65.7132 333.328L63.5669 329.213L53.3422 331.062L52.4518 335.727L56.2532 335.813L56.6039 338.189L45.7833 340.146L45.4326 337.77L48.5503 336.432L53.9304 310.444ZM56.3074 315.053L53.9316 327.702L62.0422 326.236L56.3074 315.053Z" fill="white"></path>
<path d="M82.3845 315.294C83.127 314.465 84.121 313.601 85.3663 312.701C86.623 311.786 87.9604 311.228 89.3784 311.026C91.4926 310.726 93.1517 311.134 94.3558 312.251C95.5583 313.356 96.2901 315.033 96.5511 317.284L97.8402 328.401L100.913 328.969L101.168 331.162L91.6733 332.511L91.4191 330.319L93.8761 328.964L92.632 318.235C92.4655 316.799 92.0661 315.785 91.4338 315.191C90.8015 314.597 89.8537 314.39 88.5903 314.569C87.5848 314.712 86.6844 315.084 85.889 315.683C85.1066 316.281 84.464 316.898 83.9613 317.535C83.4586 318.172 83.2102 318.516 83.2162 318.568L84.5751 330.286L87.2616 330.91L87.5159 333.102L77.6153 334.509L77.3611 332.317L80.611 330.849L78.9057 316.143L75.4488 315.826L75.1968 313.653L81.7102 312.53L82.3845 315.294Z" fill="white"></path>
<path d="M106.067 310.477C106.267 310.377 106.771 310.159 107.578 309.824C108.396 309.474 109.365 309.121 110.484 308.766C111.602 308.397 112.666 308.159 113.676 308.05C116.084 307.792 117.951 308.077 119.278 308.903C120.618 309.728 121.384 311.244 121.577 313.449L122.639 325.59L125.894 326.046L126.086 328.245L119.927 329.101L118.849 326.409C118.069 327.356 117.144 328.208 116.073 328.965C115.015 329.707 113.857 330.145 112.601 330.28C110.724 330.481 109.216 330.119 108.076 329.194C106.936 328.255 106.283 326.839 106.117 324.946C105.924 322.74 106.576 321.08 108.073 319.964C109.568 318.834 111.785 318.112 114.724 317.797L117.909 317.456L117.63 314.265C117.528 313.097 117.126 312.243 116.426 311.703C115.725 311.163 114.76 310.959 113.53 311.091C112.818 311.167 112.168 311.282 111.58 311.437C110.993 311.592 110.528 311.733 110.187 311.861C109.858 311.988 109.656 312.069 109.58 312.103L109.279 315.16L106.697 315.437L106.067 310.477ZM115.358 320.341C113.39 320.552 112.003 320.969 111.195 321.593C110.4 322.215 110.054 323.122 110.159 324.316C110.238 325.224 110.561 325.922 111.126 326.412C111.692 326.901 112.427 327.097 113.334 327C114.214 326.906 115.028 326.576 115.776 326.011C116.524 325.447 117.152 324.856 117.659 324.238C118.167 323.621 118.419 323.286 118.415 323.234L118.135 320.043L115.358 320.341Z" fill="white"></path>
<path d="M137.555 309.089C138.344 308.314 139.386 307.52 140.682 306.708C141.989 305.882 143.357 305.418 144.786 305.314C146.916 305.16 148.551 305.681 149.691 306.877C150.831 308.061 151.467 309.784 151.601 312.045L152.262 323.217L155.301 323.995L155.431 326.199L145.867 326.892L145.736 324.689L148.268 323.507L147.631 312.725C147.545 311.282 147.203 310.243 146.605 309.607C146.007 308.972 145.071 308.7 143.798 308.793C142.785 308.866 141.865 309.174 141.036 309.717C140.22 310.26 139.543 310.831 139.005 311.431C138.466 312.032 138.199 312.358 138.202 312.41L138.899 324.186L141.548 324.993L141.679 327.196L131.705 327.919L131.574 325.716L134.905 324.476L134.031 309.697L130.594 309.143L130.465 306.959L137.038 306.287L137.555 309.089Z" fill="white"></path>
<path d="M166.961 341.953C166.857 341.927 166.609 341.862 166.219 341.758C165.828 341.654 165.301 341.556 164.637 341.465C163.973 341.374 163.257 341.328 162.488 341.328C160.353 341.328 158.719 342.142 157.586 343.77C156.453 345.384 155.887 347.832 155.887 351.113C155.887 354.264 156.473 356.589 157.645 358.086C158.816 359.57 160.496 360.312 162.684 360.312C163.855 360.312 165.008 360.111 166.141 359.707C167.273 359.29 168.243 358.835 169.051 358.34C169.871 357.845 170.281 357.572 170.281 357.52L172.488 361.113C172.488 361.191 171.98 361.621 170.965 362.402C169.949 363.171 168.667 363.88 167.117 364.531C165.568 365.169 163.862 365.488 162 365.488C157.924 365.488 154.773 364.284 152.547 361.875C150.32 359.453 149.207 355.938 149.207 351.328C149.207 348.229 149.76 345.553 150.867 343.301C151.974 341.048 153.536 339.323 155.555 338.125C157.586 336.927 159.962 336.328 162.684 336.328C164.129 336.328 165.535 336.471 166.902 336.758C168.27 337.031 169.461 337.337 170.477 337.676C171.492 338.001 172 338.177 172 338.203L171.805 345.801H167.879L166.961 341.953ZM193.082 355.801H196.871V365H176.871V361.602L179.879 360.391V341.602L176.871 340.391V336.992L189.078 336.797V340.391L186.07 341.602V360.195H192.203L193.082 355.801ZM209.027 354.199C209.027 356.517 209.411 358.164 210.18 359.141C210.948 360.117 212.309 360.605 214.262 360.605C215.642 360.605 216.703 360.358 217.445 359.863C218.201 359.368 218.715 358.62 218.988 357.617C219.275 356.615 219.418 355.273 219.418 353.594V341.602L216.293 340.391V336.992L228.617 336.797V340.391L225.629 341.602V353.594C225.629 357.591 224.737 360.573 222.953 362.539C221.182 364.505 218.22 365.488 214.066 365.488C210.095 365.488 207.224 364.583 205.453 362.773C203.695 360.951 202.816 358.092 202.816 354.199V341.602L199.867 340.391V336.992L212.133 336.797V340.391L209.027 341.602V354.199ZM246.828 336.797C249.523 336.797 251.659 337.376 253.234 338.535C254.823 339.694 255.617 341.419 255.617 343.711C255.617 347.096 254.022 349.297 250.832 350.312C252.694 350.846 254.107 351.66 255.07 352.754C256.047 353.848 256.535 355.169 256.535 356.719C256.535 362.24 253.072 365 246.145 365H233.43V361.602L236.418 360.391V341.602L233.43 340.391V336.992L242.629 336.797H246.828ZM244.953 348.32C246.411 348.32 247.518 348.008 248.273 347.383C249.042 346.758 249.426 345.833 249.426 344.609C249.426 343.62 249.113 342.871 248.488 342.363C247.863 341.855 247.043 341.602 246.027 341.602H242.629V348.32H244.953ZM245.949 360.195C247.329 360.195 248.384 359.896 249.113 359.297C249.855 358.698 250.227 357.839 250.227 356.719C250.227 355.273 249.797 354.212 248.938 353.535C248.091 352.858 246.763 352.52 244.953 352.52H242.629V360.195H245.949Z" fill="#A22223"></path>
<path d="M182.644 324.956L175.857 325.401L175.476 323.128C173.747 324.977 171.679 325.945 169.272 326.034C166.474 326.137 164.345 325.29 162.884 323.494C161.437 321.697 160.664 319.184 160.567 315.957C160.461 312.417 161.268 309.566 162.988 307.405C164.72 305.244 167.33 304.099 170.818 303.97C172.119 303.923 173.387 304.091 174.623 304.475L174.424 297.838L171.004 297.162L170.938 294.956L178.329 294.489L179.157 322.074L182.577 322.75L182.644 324.956ZM174.724 307.833C174.645 307.784 174.44 307.707 174.112 307.602C173.795 307.483 173.323 307.377 172.695 307.283C172.067 307.188 171.337 307.157 170.504 307.187C166.509 307.334 164.592 310.076 164.752 315.412C164.822 317.755 165.281 319.594 166.129 320.931C166.99 322.255 168.272 322.885 169.977 322.822C170.992 322.785 171.876 322.531 172.631 322.06C173.398 321.589 173.995 321.085 174.422 320.548C174.862 320.011 175.08 319.703 175.078 319.625L174.724 307.833Z" fill="white"></path>
<path d="M218.447 309.451L218.411 312.654L209.212 312.527L209.107 321.921L213.101 322.777L213.074 325.179L201.474 325.019L201.501 322.617L204.908 321.863L205.151 300.263L201.762 299.415L201.786 297.228L209.386 297.118L221.592 297.286L221.517 303.887L218.92 303.851L217.943 300.439L209.35 300.32L209.248 309.324L218.447 309.451Z" fill="white"></path>
<path d="M230.369 297.863C230.398 296.978 230.675 296.299 231.199 295.825C231.723 295.351 232.342 295.129 233.058 295.158C234.788 295.229 235.622 296.201 235.56 298.075C235.531 298.934 235.242 299.606 234.691 300.092C234.141 300.565 233.535 300.788 232.871 300.761C232.078 300.728 231.455 300.455 231.003 299.942C230.551 299.428 230.34 298.735 230.369 297.863ZM237.23 325.959L226.848 325.535L226.922 323.329L230.35 322.472L230.843 307.676L227.474 306.737L227.547 304.55L234.95 304.657L234.351 322.635L237.304 323.753L237.23 325.959Z" fill="white"></path>
<path d="M257.988 309.172L252.199 308.802L251.53 321.636C251.446 323.262 252.066 324.117 253.392 324.201C254.249 324.256 255.306 323.991 256.562 323.406L257.524 325.581C255.649 326.792 253.75 327.336 251.827 327.213C250.475 327.127 249.394 326.614 248.582 325.675C247.784 324.724 247.439 323.215 247.547 321.147L248.203 308.547L244.208 308.292L244.343 305.698L248.359 305.563L248.621 300.531L252.658 299.986L252.355 305.818L258.144 306.188L257.988 309.172Z" fill="white"></path>
<path d="M271.435 309.953C272.32 309.317 273.457 308.705 274.848 308.117C276.252 307.518 277.667 307.285 279.093 307.42C281.219 307.621 282.764 308.408 283.729 309.78C284.695 311.14 285.091 312.949 284.917 315.208L284.057 326.367L286.955 327.641L286.786 329.841L277.239 328.939L277.408 326.739L280.071 325.99L280.901 315.221C281.012 313.78 280.815 312.696 280.309 311.968C279.804 311.24 278.916 310.816 277.646 310.696C276.635 310.601 275.683 310.753 274.79 311.152C273.91 311.553 273.164 312.006 272.551 312.51C271.937 313.014 271.628 313.293 271.624 313.344L270.718 325.106L273.227 326.344L273.058 328.544L263.102 327.604L263.272 325.403L266.732 324.73L267.869 309.969L264.548 308.851L264.716 306.67L271.303 307.096L271.435 309.953Z" fill="white"></path>
<path d="M297.203 321.125C296.974 323.3 297.321 325.11 298.243 326.555C299.166 327.986 300.486 328.812 302.204 329.033C303.366 329.183 304.461 329.16 305.49 328.964C306.518 328.768 307.375 328.524 308.06 328.232C308.746 327.926 309.092 327.748 309.098 327.696L310.276 329.934C310.271 329.986 309.804 330.254 308.876 330.739C307.963 331.212 306.848 331.613 305.53 331.942C304.227 332.26 302.872 332.328 301.464 332.147C298.339 331.745 296.068 330.494 294.653 328.396C293.25 326.299 292.725 323.567 293.079 320.2C293.299 318.103 293.905 316.258 294.897 314.666C295.902 313.076 297.191 311.89 298.765 311.108C300.352 310.328 302.089 310.06 303.974 310.302C309.527 311.017 311.977 314.489 311.323 320.718C311.278 321.145 311.207 321.569 311.111 321.99C311.014 322.41 310.946 322.684 310.907 322.81L297.203 321.125ZM307.203 319.38C307.373 317.762 307.161 316.409 306.569 315.322C305.99 314.224 304.946 313.577 303.435 313.383C301.898 313.185 300.623 313.546 299.61 314.466C298.61 315.387 297.964 316.616 297.672 318.154L307.203 319.38Z" fill="white"></path>
<path d="M320.107 331.43C320.104 331.455 320.422 331.579 321.063 331.799C321.706 332.006 322.477 332.181 323.377 332.324C326.348 332.795 327.975 331.985 328.258 329.895C328.369 329.043 328.085 328.346 327.407 327.803C326.743 327.25 325.677 326.613 324.209 325.893C322.866 325.219 321.783 324.606 320.962 324.054C320.156 323.491 319.495 322.767 318.979 321.881C318.466 320.983 318.291 319.901 318.454 318.635C318.712 316.647 319.578 315.223 321.054 314.363C322.543 313.505 324.355 313.245 326.49 313.584C327.416 313.731 328.362 313.973 329.329 314.311C330.31 314.637 331.136 314.953 331.805 315.257C332.487 315.562 332.914 315.762 333.086 315.855L332.279 321.183L329.713 320.776L329.478 317.576C329.404 317.538 329.237 317.459 328.977 317.338C328.73 317.22 328.372 317.091 327.905 316.951C327.437 316.811 326.914 316.695 326.336 316.603C323.995 316.232 322.71 316.931 322.481 318.701C322.371 319.553 322.659 320.271 323.345 320.854C324.045 321.426 325.121 322.084 326.574 322.828C327.875 323.522 328.936 324.145 329.758 324.697C330.58 325.236 331.244 325.941 331.748 326.811C332.254 327.669 332.432 328.679 332.281 329.841C331.997 332.036 330.957 333.585 329.161 334.486C327.364 335.387 325.219 335.64 322.724 335.244C321.644 335.073 320.649 334.85 319.74 334.574C318.83 334.298 318.108 334.051 317.571 333.835C317.035 333.618 316.707 333.467 316.587 333.382L317.346 327.513L320.123 327.953L320.107 331.43Z" fill="white"></path>
<path d="M341.683 335.091C341.679 335.116 341.994 335.248 342.63 335.486C343.267 335.711 344.033 335.907 344.929 336.074C347.886 336.627 349.529 335.861 349.86 333.778C349.989 332.929 349.722 332.223 349.057 331.662C348.407 331.091 347.357 330.425 345.906 329.664C344.579 328.953 343.512 328.31 342.705 327.736C341.912 327.151 341.268 326.408 340.773 325.508C340.281 324.595 340.13 323.508 340.323 322.247C340.625 320.264 341.523 318.863 343.017 318.044C344.523 317.226 346.339 317.016 348.464 317.413C349.385 317.585 350.325 317.853 351.283 318.217C352.256 318.571 353.074 318.909 353.735 319.231C354.41 319.556 354.832 319.767 355.001 319.865L354.074 325.173L351.52 324.696L351.358 321.488C351.285 321.448 351.12 321.364 350.863 321.237C350.619 321.112 350.265 320.973 349.801 320.82C349.337 320.667 348.817 320.537 348.241 320.429C345.912 319.994 344.613 320.658 344.344 322.422C344.214 323.271 344.486 323.997 345.157 324.599C345.844 325.191 346.904 325.879 348.338 326.663C349.622 327.393 350.668 328.045 351.476 328.619C352.285 329.181 352.932 329.904 353.416 330.789C353.902 331.66 354.056 332.675 353.88 333.834C353.546 336.022 352.472 337.543 350.657 338.395C348.842 339.248 346.693 339.442 344.21 338.978C343.135 338.777 342.146 338.527 341.245 338.226C340.343 337.925 339.626 337.659 339.095 337.427C338.565 337.196 338.24 337.036 338.122 336.948L339.014 331.097L341.778 331.614L341.683 335.091Z" fill="white"></path>
</g>
</svg>